<svg xmlns="http://www.w3.org/2000/svg" class="android-studio-lockup" viewBox="97.81 11.35 30.72 37.28"><title>Android Studio</title><path fill="#073042" d="M109.32 16.06h-8.42a3.1 3.1 0 00-3.09 3.1 3 3 0 003 3.09h8.6z"/><path fill="#4285f4" d="M128.5 43.61h-27.61a3.1 3.1 0 01-3.08-3.09V19.14a3.1 3.1 0 003.29 3.11H124s4.5-.39 4.5 3z"/><path d="M113.92 28.74a1.72 1.72 0 10.66 3.3 1.71 1.71 0 00-.66-3.3z"/><path fill="#3870b2" d="M115.62 32.66a2.78 2.78 0 00-1.59-5h.09a2.63 2.63 0 01.49 0v-1.72a.55.55 0 00-.26-.49.54.54 0 00-.55 0 .55.55 0 00-.26.49v1.75a2.79 2.79 0 00-1.22 5l-5.09 10.88h3.32l2.35-5a1.22 1.22 0 011.1-.69 1.2 1.2 0 011.09.69l2.42 5h3.36zm-1.7-.49a1.72 1.72 0 01-1.21-2.93 1.71 1.71 0 012.93 1.21 1.72 1.72 0 01-1.72 1.72z"/><path fill="#fff" d="M107.5 17.58h11.81v2.17H107.5z"/><path fill="#073042" d="M113 28.74a1.71 1.71 0 11-1.22.5 1.74 1.74 0 011.22-.5zm.68-1v-1.8a.55.55 0 00-.26-.49.54.54 0 00-.55 0 .55.55 0 00-.26.49v1.75a2.79 2.79 0 00-1.22 5L105 46.44a1.52 1.52 0 00.11 1.53 1.54 1.54 0 001.39.65 1.51 1.51 0 001.24-.9l4.26-9.15a1.23 1.23 0 011.1-.69 1.2 1.2 0 011.09.69l4.37 9.1a1.51 1.51 0 102.72-1.32l-6.58-13.69a2.77 2.77 0 001-2.77 2.8 2.8 0 00-2-2.14"/><path fill="#3ddc84" d="M117.6 19.49a.8.8 0 01-.58-1.37.81.81 0 011.38.57.8.8 0 01-.8.8m-8.89 0a.8.8 0 01-.57-1.37.81.81 0 111.14 1.14.79.79 0 01-.57.23m9.18-4.85l1.6-2.78a.34.34 0 00-.58-.34l-1.62 2.82a10.08 10.08 0 00-8.26 0l-1.63-2.82a.34.34 0 00-.29-.17.37.37 0 00-.29.17.34.34 0 000 .34l1.61 2.78a9.52 9.52 0 00-4.92 7.61h19.3a9.52 9.52 0 00-4.92-7.61"/><path fill="#073042" d="M125.73 28.18h-1.27a.16.16 0 00-.16.16v20.05a.16.16 0 00.15.16h1.31a2.78 2.78 0 002.77-2.78V25.4a2.78 2.78 0 01-2.8 2.78z"/></svg>